<?xml version="1.0" encoding="utf-8"?>
<!-- Generator: Adobe Illustrator 19.0.0, SVG Export Plug-In . SVG Version: 6.00 Build 0)  -->
<svg version="1.1" id="Calque_1" xmlns="http://www.w3.org/2000/svg" xmlns:xlink="http://www.w3.org/1999/xlink" x="0px" y="0px"
	 viewBox="-449 188 100 125" style="enable-background:new -449 188 100 125;" xml:space="preserve">
<path d="M-437.1,268c0-1.4,1.1-2.5,2.5-2.5h34.1c1.4,0,2.5,1.1,2.5,2.5s-1.1,2.5-2.5,2.5h-34.1C-435.9,270.5-437.1,269.4-437.1,268z
	 M-379.4,270.3v-5.7c-1.6,0.7-3.3,1.3-5,1.7v4c0,3.1-2.5,5.6-5.6,5.6h-47c-3.1,0-5.6-2.5-5.6-5.6v-51.5h8.9
	c5.8,0,10.6-4.8,10.6-10.6v-8.1h33.1c3.1,0,5.6,2.5,5.6,5.6v5.7c1.7,0.4,3.4,1,5,1.7v-7.4c0-5.9-4.7-10.6-10.6-10.6h-34.7
	c-0.6,0-1.2,0.1-1.8,0.3c-0.6,0.2-1.1,0.6-1.5,1l-18.2,17.5c-0.5,0.4-0.8,1-1.1,1.6c-0.3,0.6-0.4,1.2-0.4,1.9v53
	c0,5.9,4.7,10.6,10.6,10.6h47C-384.1,280.9-379.4,276.1-379.4,270.3z M-412.2,220.5c0.5-0.5,1-1.1,1.5-1.6c1.3-1.3,2.7-2.4,4.1-3.4
	h-9.1c-1.4,0-2.5,1.1-2.5,2.5s1.1,2.5,2.5,2.5H-412.2z M-434.4,260.5h25.5c-0.7-0.5-1.3-1.1-1.9-1.7c-1-1-2-2.1-2.8-3.3h-20.8
	c-1.4,0-2.5,1.1-2.5,2.5S-435.7,260.5-434.4,260.5z M-436.9,248c0,1.4,1.1,2.5,2.5,2.5h17.9c-0.7-1.6-1.3-3.3-1.7-5h-16.2
	C-435.7,245.5-436.9,246.6-436.9,248L-436.9,248z M-434.4,240.5h15.4c0-0.6-0.1-1.1-0.1-1.7c0-1.1,0.1-2.2,0.2-3.3h-15.5
	c-1.4,0-2.5,1.1-2.5,2.5S-435.7,240.5-434.4,240.5z M-436.9,228c0,1.4,1.1,2.5,2.5,2.5h16.6c0.5-1.7,1.2-3.4,2.1-5h-18.7
	C-435.7,225.5-436.9,226.6-436.9,228z M-390.8,262c-5.9,0-11.9-2.3-16.4-6.8c-9.1-9.1-9.1-23.7,0-32.8c4.5-4.5,10.5-6.8,16.4-6.8
	c5.9,0,11.9,2.3,16.4,6.8c8.3,8.3,9,21.3,2.1,30.4l2.5,2.5l0.9-0.9l17.3,17.3c1.7,1.7,1.7,4.5,0,6.2c-0.9,0.9-2,1.3-3.1,1.3
	s-2.2-0.4-3.1-1.3l-17.4-17.2l0.9-0.9l-2.5-2.5C-380.9,260.4-385.9,262-390.8,262z M-402.9,250.9c3.3,3.3,7.7,5,12.1,5
	c4.4,0,8.8-1.7,12.1-5c6.7-6.7,6.7-17.5,0-24.2c-3.3-3.3-7.7-5-12.1-5c-4.4,0-8.8,1.7-12.1,5C-409.6,233.4-409.6,244.3-402.9,250.9z
	 M-386,250.8c0.7-0.2,1.4-0.4,2-0.7c0.6-0.3,0.8-0.8,0.5-1.4c-0.3-0.7-0.6-1.3-0.9-2c-0.3-0.6-0.6-0.7-1.2-0.6
	c-0.8,0.2-1.6,0.4-2.4,0.6c-1.6,0.3-3.1,0.4-4.7-0.1c-1.9-0.6-3-2-3.6-3.8h5.3c0.4,0,0.7-0.3,0.7-0.7v-1.6c0-0.4-0.3-0.7-0.7-0.7
	h-5.8c0-0.5,0-0.9,0-1.3h5.8c0.4,0,0.7-0.3,0.7-0.7V236c0-0.4-0.3-0.7-0.7-0.7h-5c0,0,0,0,0-0.1c0.6-1.4,1.5-2.5,2.9-3
	c1.7-0.7,3.4-0.6,5.1-0.3c0.8,0.2,1.6,0.4,2.4,0.6c0.6,0.1,1,0,1.2-0.6c0.3-0.6,0.6-1.3,0.8-1.9c0.3-0.6,0.1-1-0.5-1.4
	c-0.1-0.1-0.3-0.2-0.5-0.2c-2.4-0.9-4.9-1.3-7.5-0.9c-1.8,0.3-3.5,0.9-5,2c-1.8,1.4-3.1,3.3-3.7,5.5l-0.1,0.3h-2.6
	c-0.4,0-0.7,0.3-0.7,0.7v1.6c0,0.4,0.3,0.7,0.7,0.7h2c0,0.4,0,0.9,0,1.3h-2c-0.4,0-0.7,0.3-0.7,0.7v1.6c0,0.4,0.3,0.7,0.7,0.7h2.5
	c0.2,0.6,0.3,1.2,0.6,1.8c1.2,3,3.3,5.1,6.5,6.1C-391.2,251.6-388.6,251.5-386,250.8z"/>
</svg>
