<?xml version="1.0" encoding="utf-8"?>
<!-- Generator: Adobe Illustrator 19.0.0, SVG Export Plug-In . SVG Version: 6.00 Build 0)  -->
<svg version="1.1" id="Calque_1" xmlns="http://www.w3.org/2000/svg" xmlns:xlink="http://www.w3.org/1999/xlink" x="0px" y="0px"
	 viewBox="-454 194.5 90 112.5" style="enable-background:new -454 194.5 90 112.5;" xml:space="preserve">
<g>
	<g>
		<path d="M-421,270.6c0,0-1.2-5.4-1.6-7.1c-0.4-1.7-3.5-14-5.3-14.8c-1.8-0.8-10.3-2.5-10.3-2.5l4.7-8.7c0,0,0.4,0.2,1.9,1.5
			s2.7,2,2.7,2l8.5,0.2l0,0c0.3,0,0.7,0,1.1,0c0.8,0,1.7,0,2.3-0.2c0.8-0.2,1.4-0.9,1.5-1.8c0.1-0.8-0.3-1.6-0.9-1.8
			c-0.5-0.2-2.4-0.5-3.6-0.6l0,0l-0.3,0c-0.3,0-0.5-0.1-0.7-0.1c0,0-0.1,0-0.1,0l-6.4-0.7c0,0-2.9-2.6-4.7-5
			c-0.3-0.4-0.7-0.9-1.1-1.3l1-2.6c2.7,0.4,3.6-0.9,3.7-1.1c0.1-0.2,2.9-4.8,1.7-8.1c-0.5-1.3-1.5-2.3-3.1-2.8
			c-2.3-0.7-4.2-0.7-5.6,0.1c-1.6,0.9-2.1,2.5-2.2,2.8l-4.1,9.5c-1.3,1.9-2.6,5-4.1,8.4c-2.5,5.6-3.3,10.3-3.2,14.1
			c0.1,3.8,3.6,4,3.6,4h13.7l6.5,16.6L-421,270.6L-421,270.6z M-420.1,238.3c1.4,0.2,2.7,0.4,3.1,0.5c0,0.1,0.1,0.3,0,0.5
			c-0.1,0.2-0.2,0.2-0.3,0.3c-0.6,0.1-1.9,0.1-2.9,0.1L-420.1,238.3z M-436.3,218.5L-436.3,218.5l0-0.1c0,0,0.3-1.2,1.5-1.9
			c1.1-0.6,2.5-0.6,4.4,0c1.1,0.4,1.8,1,2.2,1.9c0.5,1.3,0.1,3.1-0.4,4.3c-0.5,1.3-1.1,2.3-1.2,2.5c-0.1,0.1-1.1,1.1-4.4-0.2
			c-0.4-0.2-0.8,0-1,0.4s0,0.8,0.4,1c0.3,0.1,0.6,0.2,0.9,0.3l-0.7,1.7c-1.6-1.5-3.5-2.8-5-2.8L-436.3,218.5z"/>
		<path d="M-418.6,272.1c-1.2-0.1-2.4-0.8-2.4-0.8h-4.7l-0.5,3.2h10.5C-415.9,272.8-417.4,272.2-418.6,272.1z"/>
		<path d="M-433.2,272c-0.1-0.1-0.1-0.2-0.3-0.3l-8-5.1h-1.9l-7.6,5.1c-0.1,0.1-0.2,0.2-0.2,0.3c-0.4,0.2-0.6,0.7-0.6,1.1
			c0,0.8,0.6,1.4,1.4,1.4c0.8,0,1.4-0.6,1.4-1.4c0-0.2-0.1-0.5-0.2-0.7l5.6-3.8l-0.6,3.2c-0.5,0.2-0.9,0.7-0.9,1.3
			c0,0.8,0.6,1.4,1.4,1.4c0.8,0,1.4-0.6,1.4-1.4c0-0.3-0.1-0.6-0.3-0.9l0.8-4.2l6.8,4.4c-0.1,0.2-0.2,0.4-0.2,0.7
			c0,0.8,0.6,1.4,1.4,1.4c0.8,0,1.4-0.6,1.4-1.4C-432.6,272.6-432.8,272.2-433.2,272z"/>
		<path d="M-448.4,257.7h1.7h1.5h1l0.5,7.8h2.5l0.5-7.8h3.9c0.8,0,1.5-0.6,1.5-1.5c0-0.8-0.6-1.5-1.5-1.5h-11.6
			c-0.8,0-1.5,0.7-1.5,1.5C-449.9,257-449.2,257.7-448.4,257.7z"/>
		<path d="M-369.7,249.9c0.1-3.8-0.6-8.5-3.2-14.1c-1.5-3.4-2.8-6.5-4.1-8.4l-4.1-9.5c-0.1-0.4-0.6-1.9-2.2-2.8
			c-1.5-0.8-3.3-0.9-5.6-0.1c-1.6,0.5-2.6,1.5-3.1,2.8c-1.2,3.3,1.6,8,1.7,8.1c0.1,0.2,1.1,1.5,3.7,1.1l1,2.6
			c-0.4,0.5-0.8,0.9-1.1,1.3c-1.8,2.4-4.7,5-4.7,5l-7.4-3.3c0,0-0.1,0-0.1,0c-0.2,0-0.4,0-0.7,0.1l-0.3,0v0
			c-1.2,0.2-3.1,0.4-3.6,0.6c-0.6,0.3-1,1-0.9,1.8c0.1,0.9,0.7,1.6,1.5,1.8c0.5,0.1,1.4,0.2,2.3,0.2c0.4,0,0.8,0,1.1,0l0,0l9,4.4
			c0,0,1.8-1.4,3.2-2.6s1.9-1.5,1.9-1.5l4.7,8.7c0,0-8.5,1.7-10.3,2.5c-1.8,0.8-4.8,13.1-5.3,14.8c-0.4,1.7-1.6,7.1-1.6,7.1h4.3
			l6.5-16.6h13.7C-373.2,254-369.8,253.8-369.7,249.9z M-402.4,235.5c-0.1,0-0.2-0.1-0.3-0.3c-0.1-0.2,0-0.4,0-0.5
			c0.4-0.1,1.7-0.3,3.1-0.5l0.1,1.4C-400.5,235.7-401.8,235.7-402.4,235.5z M-384.3,228.5l-0.7-1.7c0.3-0.1,0.6-0.2,0.9-0.3
			c0.4-0.2,0.6-0.6,0.4-1c-0.2-0.4-0.6-0.6-1-0.4c-3.3,1.3-4.3,0.3-4.4,0.2c-0.1-0.1-0.7-1.2-1.2-2.5c-0.4-1.2-0.9-3-0.4-4.3
			c0.3-0.9,1-1.5,2.2-1.9c1.9-0.6,3.3-0.6,4.4,0c1.2,0.7,1.5,1.9,1.5,1.9l0,0.1l0,0.1l3.1,7.2C-380.8,225.7-382.7,227-384.3,228.5z"
			/>
		<path d="M-398.2,271.3c0,0-1.2,0.7-2.4,0.8c-1.2,0.1-2.7,0.7-2.9,2.4h10.5l-0.5-3.2H-398.2z"/>
		<path d="M-367.6,272c-0.1-0.1-0.1-0.2-0.2-0.3l-7.6-5.1h-1.9l-8,5.1c-0.1,0.1-0.2,0.2-0.3,0.3c-0.4,0.2-0.6,0.7-0.6,1.1
			c0,0.8,0.6,1.4,1.4,1.4c0.8,0,1.4-0.6,1.4-1.4c0-0.2-0.1-0.5-0.2-0.7l6.8-4.4l0.8,4.2c-0.2,0.2-0.3,0.5-0.3,0.9
			c0,0.8,0.6,1.4,1.4,1.4c0.8,0,1.4-0.6,1.4-1.4c0-0.6-0.4-1.1-0.9-1.3l-0.6-3.2l5.6,3.8c-0.1,0.2-0.2,0.4-0.2,0.7
			c0,0.8,0.6,1.4,1.4,1.4c0.8,0,1.4-0.6,1.4-1.4C-367,272.6-367.2,272.2-367.6,272z"/>
		<path d="M-381.9,254.8c-0.8,0-1.5,0.6-1.5,1.5s0.6,1.5,1.5,1.5h3.9l0.5,7.8h2.5l0.5-7.8h1h1.5h1.7c0.8,0,1.5-0.6,1.5-1.5
			s-0.6-1.5-1.5-1.5C-370.3,254.8-381.9,254.8-381.9,254.8z"/>
		<polygon points="-405.8,241.1 -405.8,241.2 -392.6,241.2 -397.8,238.7 -404.4,238.7 -406.8,226.8 -408.7,227.1 -405.8,241.2 		"/>
		<polygon points="-391.3,247 -391.3,245.2 -387.2,245.2 -387.2,242.2 -427.6,242.2 -427.6,245.2 -419.7,245.2 -419.7,271.1 
			-417.5,271.4 -417.5,245.2 -393.6,245.2 -393.6,251.9 		"/>
		<path d="M-409.7,240c0.2,0.1,0.4,0.1,0.6,0.1c1.1,0,2-1.1,2-2.4s-0.9-2.4-2-2.4c-0.2,0-0.4,0-0.6,0.1v-1.3h-5.2v7.2h5.2V240z
			 M-409.7,236.5c0.2-0.2,0.3-0.3,0.6-0.3c0.5,0,1,0.7,1,1.4s-0.4,1.4-1,1.4c-0.2,0-0.4-0.1-0.6-0.3V236.5z"/>
	</g>
</g>
</svg>
