<?xml version="1.0" encoding="utf-8"?>
<!-- Generator: Adobe Illustrator 19.0.0, SVG Export Plug-In . SVG Version: 6.00 Build 0)  -->
<svg version="1.1" id="Calque_1" xmlns="http://www.w3.org/2000/svg" xmlns:xlink="http://www.w3.org/1999/xlink" x="0px" y="0px"
	 viewBox="-449 188 100 125" style="enable-background:new -449 188 100 125;" xml:space="preserve">
<g>
	<path d="M-363.3,193h-55.1c-0.1,0-0.1,0-0.1,0c-0.5,0-1,0.1-1.3,0.5l-5.1,5.4l0,0l-5.4,5.4l-5.4,5.4c-0.3,0.3-0.5,0.7-0.5,1.1v70.6
		c0,0.4,0.2,0.8,0.5,1.1c0.3,0.3,0.7,0.5,1.1,0.5h55.1c0.4,0,0.8-0.2,1.1-0.5l5.4-5.4l5.4-5.4l5.4-5.4c0.3-0.3,0.5-0.7,0.5-1.1
		v-70.6C-361.7,193.7-362.5,193-363.3,193z M-416.9,196.2h51.9v67.4h-51.9V196.2z M-417.8,266.8h50.6l-2.2,2.2H-420L-417.8,266.8z
		 M-422.3,200.6l2.2-2.4v66.3l-2.2,2.2V200.6z M-423.2,272.2h50.6l-2.2,2.2h-50.6L-423.2,272.2z M-427.7,206.1l2.2-2.2v66.1
		l-2.2,2.2V206.1z M-430.8,275.3l-2.2,2.2v-66.1l2.2-2.2V275.3z M-380.2,279.8h-50.6l2.2-2.2h50.6L-380.2,279.8z"/>
</g>
<g>
	<path d="M-390.9,233c-7.1,0-13-5.8-13-13c0-7.1,5.8-13,13-13c7.1,0,13,5.8,13,13C-377.9,227.2-383.7,233-390.9,233z M-390.9,210.2
		c-5.4,0-9.8,4.4-9.8,9.8c0,5.4,4.4,9.8,9.8,9.8c5.4,0,9.8-4.4,9.8-9.8C-381.1,214.6-385.5,210.2-390.9,210.2z"/>
</g>
<g>
	<path d="M-392.4,224.5L-392.4,224.5c-0.4,0-0.8-0.2-1.1-0.5l-2.9-2.9c-0.6-0.6-0.6-1.6,0-2.2c0.6-0.6,1.6-0.6,2.2,0l1.8,1.8
		l4.7-4.7c0.6-0.6,1.6-0.6,2.2,0c0.6,0.6,0.6,1.6,0,2.2l-5.9,5.9C-391.5,224.4-391.9,224.5-392.4,224.5z"/>
</g>
<g>
	<path d="M-375.7,244.8h-30.4c-0.9,0-1.6-0.7-1.6-1.6c0-0.9,0.7-1.6,1.6-1.6h30.4c0.9,0,1.6,0.7,1.6,1.6
		C-374.1,244.1-374.8,244.8-375.7,244.8z"/>
</g>
<g>
	<path d="M-381,252.2h-19.8c-0.9,0-1.6-0.7-1.6-1.6s0.7-1.6,1.6-1.6h19.8c0.9,0,1.6,0.7,1.6,1.6C-379.4,251.5-380.1,252.2-381,252.2
		z"/>
</g>
</svg>
