<?xml version="1.0" encoding="utf-8"?>
<!-- Generator: Adobe Illustrator 19.0.0, SVG Export Plug-In . SVG Version: 6.00 Build 0)  -->
<svg version="1.1" id="Calque_1" xmlns="http://www.w3.org/2000/svg" xmlns:xlink="http://www.w3.org/1999/xlink" x="0px" y="0px"
	 viewBox="-449 188 100 125" style="enable-background:new -449 188 100 125;" xml:space="preserve">
<g>
	<path d="M-363.2,235.6h-18.1c-0.1-0.5-0.2-1.1-0.3-1.6h10.2c4.8,0,4.8-6.4,0-6.4h-8.5l-9-14c-2-3.1-5.4-3.3-5.4-3.3h-1.4
		c-0.6,0.3-1.3,0.5-2,0.7c0,0-0.1,0-0.1,0c-0.3,0.1-0.6,0.1-0.8,0.1c-0.1,0-0.2,0-0.2,0c-0.3,0-0.7,0.1-1,0.1c-0.3,0-0.7,0-1-0.1
		c-0.1,0-0.2,0-0.3,0c-0.2,0-0.5-0.1-0.7-0.1c-0.1,0-0.2,0-0.3-0.1c-0.7-0.2-1.3-0.4-1.9-0.7h-1.2c0,0-3.4,0.2-5.4,3.3l-3,4.7h-6.2
		v-13.4h10.7c-0.4-0.9-0.6-1.9-0.7-3H-423v19.4h7.3l-4.1,6.3h-3.5c-4.8,0-4.8,6.4,0,6.4h4.8c-0.1,0.6-0.2,1.1-0.3,1.7h-15.9
		c-0.8,0-1.5,0.7-1.5,1.5c0,0.8,0.7,1.5,1.5,1.5h15.4c-0.2,1.6-0.3,3.1-0.3,4.5c0,5.7,0.7,12.9,6.3,17.3l0.4,0.3h11.5v11.8h-9.3
		l-0.4,2.4c-2.1,0.1-3.8,1.9-3.8,4c0,2.2,1.8,4,4,4c2.2,0,4-1.8,4-4c0-1.2-0.5-2.3-1.4-3l0.1-0.4h6.1c-1.2,0.7-1.9,2-1.9,3.4
		c0,2.2,1.8,4,4,4c2.2,0,4-1.8,4-4c0-1.5-0.8-2.7-1.9-3.4h6.3l0.1,0.3c-0.9,0.7-1.6,1.9-1.6,3.2c0,2.2,1.8,4,4,4c2.2,0,4-1.8,4-4
		c0-2.1-1.6-3.8-3.6-4l-0.4-2.4h-9.3v-11.8h11l0.4-0.3c5.9-4.4,6.6-11.6,6.6-17.3c0-1.4-0.1-2.9-0.3-4.5h17.6c0.8,0,1.5-0.7,1.5-1.5
		C-361.7,236.2-362.3,235.6-363.2,235.6z M-411,279.8c-0.6,0-1-0.5-1-1s0.5-1,1-1c0.6,0,1,0.5,1,1S-410.4,279.8-411,279.8z
		 M-389.2,277.8c0.6,0,1,0.5,1,1c0,0.6-0.5,1-1,1c-0.6,0-1-0.5-1-1C-390.2,278.3-389.7,277.8-389.2,277.8z M-400.1,279.8
		c-0.6,0-1-0.5-1-1s0.5-1,1-1c0.6,0,1,0.5,1,1S-399.5,279.8-400.1,279.8z M-388.5,257.6H-412c-3.3-2.8-4.7-7.2-4.7-14.6
		c0-5.7,1.9-13.3,4.7-19.2c1.9-4,6.1-10.6,11.9-10.6c5.8,0,9.9,6.7,11.9,10.6c2.9,5.9,4.7,13.4,4.7,19.2
		C-383.4,250.3-385,254.7-388.5,257.6z"/>
	<circle cx="-400" cy="201.2" r="8"/>
	<g>
		<path d="M-409.1,253.3c-0.8,0-1.5-0.7-1.5-1.5v-23.9c0-0.8,0.7-1.5,1.5-1.5s1.5,0.7,1.5,1.5v23.9
			C-407.6,252.6-408.2,253.3-409.1,253.3z"/>
		<path d="M-400,253.3c-0.8,0-1.5-0.7-1.5-1.5v-23.9c0-0.8,0.7-1.5,1.5-1.5c0.8,0,1.5,0.7,1.5,1.5v23.9
			C-398.5,252.6-399.2,253.3-400,253.3z"/>
		<path d="M-390.9,253.3c-0.8,0-1.5-0.7-1.5-1.5v-23.9c0-0.8,0.7-1.5,1.5-1.5s1.5,0.7,1.5,1.5v23.9
			C-389.4,252.6-390.1,253.3-390.9,253.3z"/>
	</g>
	<path d="M-395.5,221.2h-8.8c-0.8,0-1.5-0.7-1.5-1.5c0-0.8,0.7-1.5,1.5-1.5h8.8c0.8,0,1.5,0.7,1.5,1.5
		C-394,220.5-394.7,221.2-395.5,221.2z"/>
</g>
</svg>
